<svg xmlns="http://www.w3.org/2000/svg" width="1200" height="630" viewBox="0 0 1200 630" role="img" aria-label="School Health Hub 교직원 교육센터">
  <defs>
    <linearGradient id="bg" x1="0" x2="1" y1="0" y2="1">
      <stop offset="0" stop-color="#f8faff"/>
      <stop offset="1" stop-color="#eef4ff"/>
    </linearGradient>
    <linearGradient id="mark" x1="0" x2="1" y1="0" y2="1">
      <stop offset="0" stop-color="#4f46e5"/>
      <stop offset="1" stop-color="#22c55e"/>
    </linearGradient>
  </defs>
  <rect width="1200" height="630" fill="url(#bg)"/>
  <rect x="72" y="72" width="1056" height="486" rx="44" fill="#ffffff" stroke="#dbe5ff"/>
  <circle cx="164" cy="174" r="48" fill="url(#mark)"/>
  <path d="M164 145c20-18 52-10 58 18 5 27-19 49-58 73-39-24-63-46-58-73 6-28 38-36 58-18Z" fill="#ffffff" opacity=".95"/>
  <text x="236" y="160" fill="#64748b" font-family="Arial, sans-serif" font-size="28" font-weight="700">School Health Hub</text>
  <text x="236" y="230" fill="#0f172a" font-family="Arial, sans-serif" font-size="64" font-weight="900">학교 교직원 교육센터</text>
  <text x="236" y="292" fill="#475569" font-family="Arial, sans-serif" font-size="32" font-weight="700">Google Workspace 기반 교직원 교육 관리 시스템</text>
  <rect x="236" y="360" width="196" height="54" rx="27" fill="#eef2ff"/>
  <text x="264" y="396" fill="#4f46e5" font-family="Arial, sans-serif" font-size="24" font-weight="800">QR 전자서명</text>
  <rect x="456" y="360" width="172" height="54" rx="27" fill="#ecfdf5"/>
  <text x="486" y="396" fill="#16a34a" font-family="Arial, sans-serif" font-size="24" font-weight="800">이수현황</text>
  <rect x="652" y="360" width="194" height="54" rx="27" fill="#fff1f2"/>
  <text x="682" y="396" fill="#e11d48" font-family="Arial, sans-serif" font-size="24" font-weight="800">최종 서명부</text>
</svg>
